<svg width="36" height="36" viewBox="0 0 36 36" fill="none" xmlns="http://www.w3.org/2000/svg">
<path d="M28 8.32372C28 8.14493 27.8551 8 27.6763 8H8.32372C8.14493 8 8 8.14493 8 8.32372V9.67628C8 9.85507 8.14493 10 8.32372 10H27.6763C27.8551 10 28 9.85507 28 9.67628V8.32372Z" fill="white"/>
<path fill-rule="evenodd" clip-rule="evenodd" d="M26.8272 10C26.9217 10.0001 26.996 10.0816 26.9883 10.1758L25.4776 28.8096C25.4231 29.4819 24.8611 30 24.1866 30H11.8184C11.1438 30 10.5819 29.4819 10.5274 28.8096L9.01665 10.1758C9.00902 10.0816 9.08337 10.0002 9.17779 10H26.8272ZM18.0293 13.5312C17.7535 13.5315 17.5295 13.7553 17.5293 14.0312V26.126L17.5391 26.2266C17.5857 26.4543 17.7879 26.6258 18.0293 26.626C18.271 26.626 18.473 26.4544 18.5196 26.2266L18.5293 26.126V14.0312C18.5292 13.7552 18.3054 13.5312 18.0293 13.5312ZM14.0127 13.541C13.7368 13.5512 13.5267 13.783 13.544 14.0586L14.3038 26.1279C14.3211 26.4035 14.5591 26.6186 14.835 26.6084C15.1106 26.598 15.3199 26.3671 15.3028 26.0918L14.543 14.0215C14.5257 13.7461 14.2885 13.5311 14.0127 13.541ZM21.9629 13.541C21.687 13.5309 21.449 13.7459 21.4317 14.0215L20.6729 26.0918C20.6558 26.3672 20.8649 26.5982 21.1407 26.6084C21.4166 26.6186 21.6546 26.4035 21.6719 26.1279L22.4317 14.0586C22.449 13.783 22.2389 13.5512 21.9629 13.541Z" fill="white"/>
<path d="M15 8V6H21V8" stroke="white" stroke-width="1.5" stroke-linecap="round" stroke-linejoin="round"/>
</svg>
