<svg width="20" height="20" viewBox="0 0 20 20" fill="none" xmlns="http://www.w3.org/2000/svg">
<path d="M12.772 3.72321C12.7333 3.68415 12.7331 3.62131 12.772 3.58234L13.8327 2.52168C13.9889 2.36547 14.2427 2.36547 14.3989 2.52168L16.6611 4.78387C16.8173 4.94008 16.8173 5.1939 16.6611 5.35011L15.6005 6.41077C15.5615 6.44968 15.4986 6.44953 15.4596 6.41077L12.772 3.72321ZM4.84816 14.8166C4.55824 14.8857 4.29713 14.6246 4.36616 14.3346L5.07327 11.3654C5.09042 11.2933 5.12727 11.2271 5.17961 11.1748L11.9234 4.43101C11.9624 4.39237 12.0253 4.39234 12.0642 4.43101L14.7511 7.11788C14.79 7.15682 14.7905 7.22036 14.7518 7.25944L8.00804 14.0032C7.9557 14.0555 7.88947 14.0924 7.81745 14.1095L4.84816 14.8166Z" fill="#B0B8C1"/>
<path d="M4 17H16" stroke="#B0B8C1" stroke-linecap="round"/>
</svg>
