<svg width="36" height="36" viewBox="0 0 36 36" fill="none" xmlns="http://www.w3.org/2000/svg">
<path fill-rule="evenodd" clip-rule="evenodd" d="M22.5 30.7618C22.5 31.3895 21.7749 31.7395 21.2834 31.349L14.7566 26.163C14.624 26.0576 14.4595 26.0002 14.2901 26.0002H4.75C4.33579 26.0002 4 25.6644 4 25.2502V12.7502C4 12.336 4.33579 12.0002 4.75 12.0002H11.8057C11.9751 12.0002 12.1396 11.9428 12.2723 11.8374L21.2834 4.67691C21.7749 4.28638 22.5 4.63636 22.5 5.2641V30.7618Z" fill="#B0B8C1"/>
<path d="M26 28.5C27.4267 27.1211 28.5584 25.4842 29.3305 23.6826C30.1026 21.881 30.5 19.95 30.5 18C30.5 16.05 30.1026 14.119 29.3305 12.3174C28.5584 10.5158 27.4267 8.87888 26 7.5" stroke="#B0B8C1" stroke-width="1.5" stroke-linecap="round"/>
<path d="M24.5 24C25.4903 22.0978 26 20.059 26 18C26 15.941 25.4903 13.9022 24.5 12" stroke="#B0B8C1" stroke-width="1.5" stroke-linecap="round"/>
</svg>
