<svg width="36" height="36" viewBox="0 0 36 36" fill="none" xmlns="http://www.w3.org/2000/svg">
<path d="M17.3047 4.67263C17.6924 4.2976 18.3076 4.2976 18.6953 4.67263L21.1097 7.00829C21.3313 7.22275 21.6396 7.3229 21.945 7.27971L25.2711 6.80925C25.8052 6.73371 26.3029 7.09534 26.3961 7.62662L26.9765 10.9353C27.0298 11.2391 27.2203 11.5013 27.4928 11.6459L30.4602 13.2204C30.9367 13.4732 31.1268 14.0583 30.8899 14.5429L29.4147 17.5608C29.2792 17.8379 29.2792 18.1621 29.4147 18.4392L30.8899 21.4571C31.1268 21.9417 30.9367 22.5268 30.4602 22.7796L27.4928 24.3541C27.2203 24.4987 27.0298 24.7609 26.9765 25.0647L26.3961 28.3734C26.3029 28.9047 25.8052 29.2663 25.2711 29.1908L21.945 28.7203C21.6396 28.6771 21.3313 28.7773 21.1097 28.9917L18.6953 31.3274C18.3076 31.7024 17.6924 31.7024 17.3047 31.3274L14.8903 28.9917C14.6687 28.7773 14.3604 28.6771 14.055 28.7203L10.7289 29.1908C10.1948 29.2663 9.69706 28.9047 9.60386 28.3734L9.02347 25.0647C8.97018 24.7609 8.77967 24.4987 8.5072 24.3541L5.53978 22.7796C5.0633 22.5268 4.87318 21.9417 5.11006 21.4571L6.58532 18.4392C6.72078 18.1621 6.72078 17.8379 6.58532 17.5608L5.11006 14.5429C4.87318 14.0583 5.0633 13.4732 5.53978 13.2204L8.5072 11.6459C8.77967 11.5013 8.97018 11.2391 9.02347 10.9353L9.60386 7.62662C9.69706 7.09534 10.1948 6.73371 10.7289 6.80925L14.055 7.27971C14.3604 7.3229 14.6687 7.22275 14.8903 7.00829L17.3047 4.67263Z" fill="#DBDEE7"/>
<path d="M14 17.7692L16.8 21L22 15" stroke="#F5F5F5" stroke-width="2" stroke-linecap="round" stroke-linejoin="round"/>
</svg>
